<?xml version="1.0" encoding="utf-8"?>
<!-- Generator: Adobe Illustrator 27.7.0, SVG Export Plug-In . SVG Version: 6.00 Build 0)  -->
<svg version="1.1" id="Layer_1" xmlns="http://www.w3.org/2000/svg" xmlns:xlink="http://www.w3.org/1999/xlink" x="0px" y="0px"
	 viewBox="0 0 46 45" style="enable-background:new 0 0 46 45;" xml:space="preserve">
<style type="text/css">
	.st0{fill-rule:evenodd;clip-rule:evenodd;}
	.st1{fill-rule:evenodd;clip-rule:evenodd;fill:#FFFFFF;}
</style>
<g id="Group">
	<path id="Rectangle-5" class="st0" d="M0,0h46v18.85V45H0V0z"/>
</g>
<path id="_x38_" class="st1" d="M29.74,24.32c0.64,0.95,0.97,2.03,0.97,3.25c0,1.35-0.32,2.51-0.95,3.47
	c-0.63,0.96-1.51,1.69-2.62,2.19c-1.11,0.5-2.37,0.74-3.79,0.74c-1.41,0-2.67-0.25-3.79-0.74c-1.11-0.5-1.98-1.23-2.62-2.19
	C16.32,30.08,16,28.92,16,27.57c0-1.23,0.32-2.31,0.95-3.26c0.63-0.94,1.52-1.67,2.64-2.18c-0.97-0.5-1.73-1.18-2.28-2.04
	s-0.82-1.82-0.82-2.89c0-1.3,0.29-2.42,0.88-3.35c0.58-0.93,1.39-1.64,2.43-2.13c1.03-0.49,2.22-0.73,3.56-0.73
	c1.34,0,2.53,0.24,3.56,0.73c1.03,0.49,1.84,1.2,2.43,2.13c0.58,0.93,0.88,2.05,0.88,3.35c0,1.06-0.28,2.03-0.84,2.89
	s-1.32,1.54-2.3,2.04C28.21,22.65,29.1,23.37,29.74,24.32L29.74,24.32z M21.14,14.95c-0.55,0.59-0.82,1.38-0.82,2.39
	c0,0.99,0.27,1.79,0.82,2.4c0.55,0.6,1.29,0.91,2.22,0.91c0.94,0,1.68-0.3,2.23-0.9c0.54-0.6,0.81-1.4,0.81-2.4
	c0-0.97-0.27-1.76-0.82-2.36c-0.55-0.6-1.29-0.91-2.22-0.91C22.42,14.07,21.68,14.37,21.14,14.95L21.14,14.95z M25.94,29.96
	c0.62-0.63,0.94-1.5,0.94-2.6c0-0.73-0.15-1.36-0.44-1.91c-0.29-0.55-0.71-0.97-1.24-1.27c-0.54-0.3-1.16-0.45-1.87-0.45
	c-0.71,0-1.32,0.15-1.85,0.45c-0.53,0.3-0.93,0.73-1.22,1.27c-0.29,0.55-0.43,1.18-0.43,1.91c0,1.11,0.31,1.97,0.94,2.6
	c0.63,0.63,1.49,0.94,2.59,0.94C24.45,30.9,25.31,30.59,25.94,29.96L25.94,29.96z"/>
</svg>
