<svg width="157" height="157" viewBox="0 0 157 157" fill="none" xmlns="http://www.w3.org/2000/svg">
<g clip-path="url(#clip0_7_26)">
<path d="M158.313 -1.62652H-1.36904V158.055H158.313V-1.62652Z" fill="#242424"/>
<path d="M43.3869 42.6549C51.1863 59.8594 58.9853 77.0642 66.7847 94.2687C63.7663 100.936 60.7484 107.604 57.7301 114.271C46.9069 90.3971 36.0837 66.5229 25.2601 42.6483C31.3023 42.6506 37.3444 42.6526 43.3869 42.6549Z" fill="white" stroke="white" stroke-miterlimit="10"/>
<path d="M113.731 114.352C105.906 97.1481 98.0803 79.9444 90.255 62.7407C93.2643 56.0941 96.274 49.4479 99.2833 42.8013C110.102 66.6516 120.921 90.5015 131.74 114.352C125.737 114.352 119.734 114.352 113.731 114.352Z" fill="white" stroke="white" stroke-miterlimit="10"/>
</g>
<defs>
<clipPath id="clip0_7_26">
<rect width="157" height="157" fill="white"/>
</clipPath>
</defs>
</svg>
