<?xml version="1.0" encoding="utf-8"?>
<!-- Generator: Adobe Illustrator 27.7.0, SVG Export Plug-In . SVG Version: 6.00 Build 0)  -->
<svg version="1.1" xmlns="http://www.w3.org/2000/svg" xmlns:xlink="http://www.w3.org/1999/xlink" x="0px" y="0px"
	 viewBox="0 0 4000 4000" style="enable-background:new 0 0 4000 4000;" xml:space="preserve">
<style type="text/css">
	.st0{display:none;}
	.st1{display:inline;fill:#FFFFFF;}
	.st2{display:inline;}
	.st3{fill:none;stroke:#242424;stroke-width:50;stroke-miterlimit:10;}
	.st4{stroke:#000000;stroke-miterlimit:10;}
	.st5{display:inline;stroke:#000000;stroke-miterlimit:10;}
	.st6{fill:#FFFFFF;stroke:#FFFFFF;stroke-miterlimit:10;}
	.st7{display:inline;fill:#242424;stroke:#242424;stroke-miterlimit:10;}
</style>
<g id="Layer_7" class="st0">
	<rect x="-27.17" y="-28.27" class="st1" width="4054.53" height="4054.53"/>
</g>
<g id="Instagram_Profile" class="st0">
	<g id="Layer_6" class="st2">
		<circle class="st3" cx="2000" cy="2000" r="1973.51"/>
	</g>
	<rect x="-90.12" y="-88.79" class="st4" width="4273.53" height="4218.28"/>
	<path class="st5" d="M1227.86,1163.17c182.28,402.11,364.57,804.21,546.85,1206.32c-70.54,155.83-141.08,311.67-211.62,467.5
		C1310.13,2279,1057.17,1721,804.21,1163.01C945.42,1163.06,1086.64,1163.11,1227.86,1163.17z"/>
	<path class="st5" d="M2774.89,2836.14c-182.9-402.09-365.79-804.17-548.69-1206.26c70.34-155.34,140.67-310.68,211.01-466.02
		c252.86,557.43,505.72,1114.85,758.58,1672.28C3055.49,2836.14,2915.19,2836.14,2774.89,2836.14z"/>
</g>
<g id="Website_Header" class="st0">
	<path class="st5" d="M1060.41,981.68c221.81,489.31,443.63,978.62,665.44,1467.93c-85.84,189.63-171.68,379.26-257.51,568.89
		c-307.82-679-615.64-1358-923.46-2037.01C716.72,981.56,888.56,981.62,1060.41,981.68z"/>
	<path class="st5" d="M2942.94,3017.47c-222.56-489.29-445.12-978.57-667.68-1467.86c85.59-189.03,171.18-378.06,256.77-567.09
		c307.7,678.32,615.4,1356.63,923.09,2034.95C3284.4,3017.47,3113.67,3017.47,2942.94,3017.47z"/>
</g>
<g id="Layer_8">
	<g id="Layer_9">
		<rect x="-34.88" y="-41.44" width="4068.33" height="4068.33"/>
	</g>
	<path class="st6" d="M1105.4,1086.75c198.71,438.33,397.41,876.67,596.12,1315c-76.9,169.87-153.79,339.75-230.69,509.62
		c-275.75-608.26-551.5-1216.52-827.26-1824.79C797.51,1086.64,951.45,1086.69,1105.4,1086.75z"/>
	<path class="st6" d="M2897.61,2913.42c-199.37-438.31-398.75-876.62-598.12-1314.93c76.67-169.34,153.35-338.67,230.02-508.01
		c275.64,607.65,551.28,1215.29,826.92,1822.94C3203.49,2913.42,3050.55,2913.42,2897.61,2913.42z"/>
</g>
<g id="Layer_5" class="st0">
	<g id="Layer_4" class="st2">
		<circle class="st3" cx="2000" cy="2001.15" r="1973.51"/>
	</g>
	<path class="st7" d="M1394.4,1284.62c155.44,342.89,310.88,685.78,466.32,1028.67c-60.15,132.88-120.3,265.77-180.46,398.65
		c-215.71-475.82-431.42-951.63-647.13-1427.45C1153.56,1284.54,1273.98,1284.58,1394.4,1284.62z"/>
	<path class="st7" d="M2682.21,2715.58c-155.96-342.87-311.92-685.74-467.89-1028.61c59.98-132.46,119.96-264.93,179.94-397.39
		c215.62,475.34,431.24,950.67,646.87,1426.01C2921.48,2715.58,2801.84,2715.58,2682.21,2715.58z"/>
	<path class="st7" d="M1895.7,2389.37c-48.42,108.33-96.84,216.67-145.27,325c98.05,1.15,196.1,2.29,294.15,3.44
		C1994.96,2608.33,1945.33,2498.85,1895.7,2389.37z"/>
	<path class="st7" d="M2037.16,1285.37c96.96,0,193.92,0,290.89,0c-49.64,104.38-99.29,208.76-148.93,313.15
		C2131.79,1494.14,2084.48,1389.76,2037.16,1285.37z"/>
</g>
</svg>
